<?xml version="1.0" standalone="no"?>
<!DOCTYPE svg PUBLIC "-//W3C//DTD SVG 20010904//EN"
"http://www.w3.org/TR/2001/REC-SVG-20010904/DTD/svg10.dtd">
    <svg version="1.0" xmlns="http://www.w3.org/2000/svg"
    width="32.000000pt" height="32.000000pt" viewBox="0 0 980.000000 980.000000"
    preserveAspectRatio="xMidYMid meet">
    <metadata>
    Created by potrace 1.14, written by Peter Selinger 2001-2017
    </metadata>
    <g transform="translate(0.000000,980.000000) scale(0.100000,-0.100000)"
    fill="#543838" stroke="none">
    <path d="M1439 9472 l-102 -98 653 -679 c1102 -1146 1470 -1536 1470 -1555 0
    -14 -119 -140 -132 -140 -4 0 -77 66 -161 147 -483 466 -2061 1978 -2066 1981
    -3 1 -53 -44 -109 -101 l-103 -104 438 -454 c1148 -1191 1683 -1757 1683
    -1779 0 -13 -119 -140 -131 -140 -7 0 -670 634 -1663 1589 -203 196 -414 398
    -468 450 l-99 94 -100 -99 c-54 -54 -99 -103 -99 -109 0 -6 480 -509 1066
    -1119 l1066 -1109 -75 -75 -75 -75 -70 64 c-38 35 -353 336 -698 669 -346 332
    -795 764 -999 960 -203 196 -392 375 -418 400 l-48 44 -100 -100 c-55 -54 -98
    -104 -97 -110 2 -6 487 -515 1078 -1130 592 -616 1294 -1346 1560 -1624 267
    -278 487 -506 490 -508 3 -1 122 115 265 258 l260 260 2520 -2520 2520 -2520
    320 320 320 320 -2520 2520 -2520 2520 253 253 c138 138 252 259 252 268 0 9
    -44 58 -97 110 -521 503 -2971 2852 -3094 2967 -31 29 -59 52 -62 52 -4 0 -52
    -44 -108 -98z"/>
    <path d="M8475 9114 c-283 -33 -562 -117 -830 -248 -801 -394 -1503 -1248
    -1674 -2039 -56 -257 -44 -670 24 -848 3 -9 -120 -139 -335 -354 -187 -187
    -340 -344 -340 -350 0 -13 632 -645 645 -645 5 0 163 153 350 340 l341 341 84
    -20 c186 -43 378 -53 560 -30 440 54 953 281 1330 587 140 114 464 440 573
    577 233 291 452 719 538 1053 79 307 80 626 2 877 -93 297 -280 518 -548 646
    -114 55 -207 82 -350 104 -89 13 -289 18 -370 9z"/>
    <path d="M2608 2573 l-1688 -1688 328 -328 327 -329 1520 1525 c836 838 1591
    1599 1679 1690 l158 167 -35 44 c-45 54 -587 606 -596 606 -3 0 -765 -759
    -1693 -1687z"/>
    </g>
</svg>